PathFileType  4	(X/Y/Z) C:\Users\antoi\Documents\MyRepositories\mobilecap\ResultsAnalysis
DataRate	CameraRate	NumFrames	NumMarkers	Units	OrigDataRate	OrigDataStartFrame	OrigNumFrames
100.0	100.0	4	51	mm	100.0	98	259
Frame#	Time	r_knee			r_shank_antsup			r_ankle			r_calc			r_5meta			r_toe			L_knee			L_shank_antsup			L_ankle			L_calc			L_5meta			L_toe			r_sh2			r_sh3			r_sh4			L_sh2			L_sh3			r_thigh1			r_thigh2			r_thigh3			r_thigh4			r_thigh5			L_thigh1			L_thigh2			L_thigh3			L_thigh4			r.ASIS			r.PSIS			L.ASIS			L.PSIS			C7			R_Shoulder			L_Shoulder			R_Sternum			L_Sternum			R_humerus			R_elbow_med			R_elbow_lat			R_forearm			R_wrist_radius			R_wrist_ulna			L_humerus			L_elbow_med			L_elbow_lat			L_forearm			L_wrist_radius			L_wrist_ulna			R_HJC			L_HJC			R_HJC_reg			L_HJC_reg			
		X1	Y1	Z1	X2	Y2	Z2	X3	Y3	Z3	X4	Y4	Z4	X5	Y5	Z5	X6	Y6	Z6	X7	Y7	Z7	X8	Y8	Z8	X9	Y9	Z9	X10	Y10	Z10	X11	Y11	Z11	X12	Y12	Z12	X13	Y13	Z13	X14	Y14	Z14	X15	Y15	Z15	X16	Y16	Z16	X17	Y17	Z17	X18	Y18	Z18	X19	Y19	Z19	X20	Y20	Z20	X21	Y21	Z21	X22	Y22	Z22	X23	Y23	Z23	X24	Y24	Z24	X25	Y25	Z25	X26	Y26	Z26	X27	Y27	Z27	X28	Y28	Z28	X29	Y29	Z29	X30	Y30	Z30	X31	Y31	Z31	X32	Y32	Z32	X33	Y33	Z33	X34	Y34	Z34	X35	Y35	Z35	X36	Y36	Z36	X37	Y37	Z37	X38	Y38	Z38	X39	Y39	Z39	X40	Y40	Z40	X41	Y41	Z41	X42	Y42	Z42	X43	Y43	Z43	X44	Y44	Z44	X45	Y45	Z45	X46	Y46	Z46	X47	Y47	Z47	X48	Y48	Z48	X49	Y49	Z49	X50	Y50	Z50	X51	Y51	Z51	

98	0.97000000	-844.47853	1028.23240	-399.26373	-833.77102	904.07876	-398.63806	-986.26237	593.20928	-399.44696	-1038.89650	618.62610	-461.57851	-961.00815	434.60970	-377.75020	-898.65714	428.74139	-432.66431	-849.48030	1029.14115	-761.91493	-840.58778	916.98932	-753.38896	-1034.43796	629.04253	-723.08713	-1086.05816	639.55330	-654.65189	-990.01965	480.14219	-774.38130	-932.06062	472.79828	-721.58497	-850.64519	789.58426	-410.77222	-902.00819	908.95650	-360.41676	-915.38651	793.37888	-355.99666	-923.55414	947.25712	-771.22603	-947.82780	827.97672	-786.49356	-714.87015	1243.78327	-422.33242	-732.36456	1133.59747	-430.92324	-766.63005	1110.99083	-377.62086	-805.89167	1248.55329	-353.80937	-817.94661	1131.94207	-368.65625	-750.51823	1275.43643	-782.75163	-747.73416	1137.98340	-773.01486	-861.96634	1271.20393	-807.10666	-858.47497	1133.56812	-791.61141	-704.40144	1523.20100	-444.13546	-899.15236	1598.44516	-510.35077	-726.62001	1529.66294	-710.66328	-913.69668	1604.63278	-610.75266	-808.48274	2078.75464	-559.13224	-746.61972	2051.55218	-399.76827	-757.08196	2072.33539	-704.64724	-665.58859	1993.63104	-539.56218	-669.82503	1992.41542	-592.28747	-756.03058	1965.70586	-258.65176	-809.33411	1755.80719	-150.75138	-833.86149	1839.15489	-114.10248	-674.34362	1890.47836	-143.72763	-563.42160	1913.79320	-150.92657	-560.34503	1918.13825	-106.38996	-716.62021	2030.37696	-861.43274	-667.62491	1845.03495	-1010.92118	-677.10959	1930.39942	-1035.48488	-566.51250	1983.46393	-917.79366	-478.94265	2036.04695	-874.94617	-462.38023	2049.66846	-916.20766	-802.45954	1462.23070	-474.74535	-820.28076	1457.18734	-687.33188	-789.23695	1456.49161	-474.26943	-814.50298	1467.24103	-648.69057	
99	0.98000000	-834.93260	1040.48755	-399.77999	-822.55750	916.85061	-399.88751	-970.17166	602.90829	-401.52502	-1021.34371	628.57782	-465.02611	-944.50851	443.89160	-381.91247	-880.65740	439.24150	-434.81805	-836.92531	1040.71422	-762.11100	-826.40788	928.39804	-752.76903	-1017.30291	638.30211	-722.49379	-1069.44455	649.14048	-653.99336	-970.88137	489.38729	-771.31666	-913.12633	483.58779	-718.24543	-837.25128	802.26930	-412.33366	-890.31904	920.07673	-360.87542	-901.37405	804.44095	-356.61600	-909.46831	957.70693	-770.65739	-932.77663	838.45464	-786.21982	-705.60444	1256.56085	-423.12039	-723.01939	1146.33255	-432.02706	-756.20159	1123.41520	-378.05398	-795.37277	1260.86311	-353.09293	-807.43414	1144.25693	-368.33040	-740.11992	1288.03241	-783.10554	-735.67265	1150.62970	-773.53570	-851.78969	1282.40256	-806.38269	-846.32392	1144.76046	-791.99655	-695.63164	1535.16063	-443.89524	-890.71304	1610.81547	-509.91422	-718.04300	1541.48995	-709.72726	-904.88884	1616.80480	-609.63011	-798.52934	2091.03896	-557.68454	-737.59488	2063.17314	-398.51807	-747.81455	2084.49553	-701.36772	-655.90343	2006.06481	-538.54477	-659.52470	2005.44447	-590.50877	-750.15961	1978.57154	-257.96292	-805.98297	1768.72110	-149.90372	-830.39115	1852.86125	-113.94196	-669.35711	1902.24087	-138.22082	-556.86968	1924.34798	-140.30040	-556.05101	1928.73179	-97.38529	-712.73096	2044.31246	-864.02830	-666.84190	1858.82547	-1013.89075	-677.12423	1944.20960	-1037.64017	-564.66800	1996.42892	-922.34999	-476.12489	2048.57086	-879.72321	-460.32887	2062.61934	-921.20194	-793.89181	1474.35735	-474.00639	-811.89523	1469.21181	-686.57519	-780.93349	1468.89897	-473.95791	-805.67870	1479.35392	-648.01823	
100	0.99000000	-824.72005	1051.40957	-399.97314	-811.30484	928.41641	-400.49371	-954.39716	612.00927	-403.55490	-1005.24372	637.36788	-467.88158	-926.51990	452.46276	-386.65202	-861.96617	450.02257	-438.52280	-824.86880	1051.47654	-762.12367	-812.47066	938.97111	-752.02604	-999.42088	646.41034	-721.46141	-1052.52674	656.83889	-653.26758	-949.76382	498.18677	-768.39470	-892.60599	493.74455	-714.63533	-824.25172	813.73407	-413.50114	-879.02383	930.46255	-361.30728	-888.35107	814.80311	-357.03295	-895.73889	967.19768	-770.53781	-917.57961	847.62667	-785.72341	-696.08870	1268.39546	-422.89439	-713.27755	1158.21159	-432.14507	-745.70323	1134.85218	-378.01265	-784.92041	1272.12557	-351.81280	-796.87099	1155.57250	-367.67717	-730.34752	1299.71516	-783.63129	-724.38358	1162.48945	-774.33917	-842.17376	1292.87352	-805.44218	-835.08926	1155.33426	-792.09172	-687.24558	1546.27325	-443.70777	-882.53465	1622.00024	-509.75382	-709.70691	1552.36457	-708.93554	-896.47078	1627.81711	-608.76368	-788.29306	2102.47553	-556.39421	-728.09700	2073.62984	-397.21954	-738.12851	2095.66660	-699.74892	-646.03811	2017.39519	-537.29994	-653.17870	2015.35330	-581.85204	-743.67322	1989.89485	-257.42236	-802.48957	1780.33372	-149.34932	-826.85814	1865.23151	-114.23705	-664.26817	1912.47184	-132.68150	-549.71876	1933.22451	-129.04385	-551.87793	1937.18697	-87.87566	-708.79735	2056.22812	-865.24066	-666.32727	1871.17288	-1016.66739	-677.35735	1956.62316	-1039.55789	-562.39047	2007.52749	-926.43313	-472.81184	2059.22154	-885.14135	-457.69938	2073.40908	-926.87879	-785.56452	1485.48487	-473.41687	-803.62954	1480.15543	-685.97592	-772.71094	1480.23383	-473.66886	-797.16226	1490.43921	-647.38301	
101	1.00000000	-813.92688	1061.27257	-400.10858	-799.99276	938.69994	-400.67012	-938.66967	620.12101	-405.92830	-990.39019	644.67749	-469.87037	-906.93524	460.42362	-391.39325	-842.17372	461.01522	-443.19611	-813.18481	1061.32864	-761.93390	-798.78837	948.88417	-751.25306	-980.91316	653.68741	-720.05728	-1035.14493	662.86053	-652.65662	-927.16661	506.32115	-765.83827	-870.77964	503.23083	-711.20014	-811.54795	823.89446	-414.32120	-868.35885	939.96643	-362.02686	-875.91433	823.83091	-358.58344	-882.31488	975.87581	-770.85064	-902.27156	855.66401	-784.78424	-686.53333	1279.43188	-422.21279	-703.18671	1169.26126	-431.66813	-735.12638	1145.46302	-377.37018	-774.83054	1282.39971	-350.39342	-786.26866	1165.89370	-366.68825	-721.27277	1310.40180	-784.44161	-713.79053	1173.32554	-775.30643	-833.10217	1302.48733	-803.79566	-824.73259	1165.11296	-791.70593	-679.08811	1556.46136	-443.48980	-874.54598	1632.15084	-509.75301	-701.51862	1562.32451	-708.10555	-888.27392	1637.82966	-607.93253	-777.74878	2112.95152	-555.16792	-718.12556	2083.08848	-395.95018	-728.14726	2105.94016	-699.31028	-635.69352	2028.01920	-535.34224	-648.71206	2022.86817	-571.09260	-736.52741	1999.96474	-256.65020	-799.10718	1791.44647	-149.24321	-823.28824	1876.73222	-114.56716	-659.26547	1921.40759	-126.91627	-543.69715	1940.14541	-118.59324	-548.41077	1944.44293	-77.71490	-704.48439	2066.15717	-864.81765	-666.26025	1882.29369	-1018.91528	-677.70329	1968.02790	-1041.24047	-559.69986	2017.23343	-930.28230	-469.01077	2068.08660	-891.14644	-454.28327	2081.98403	-933.01898	-777.42990	1495.64496	-472.85848	-795.45939	1490.13049	-685.41585	-764.58763	1490.56208	-473.35364	-788.82513	1500.58866	-646.69582	
